PathFileType	4	(X/Y/Z)	./resultDataOpenSim/trcMotMarkerGrf/sub06/qtm-12-05.trc
DataRate	CameraRate	NumFrames	NumMarkers	Units	OrigDataRate	OrigDataStartFrame	OrigNumFrames
250.000000	250.000000	13	24	m	250.000000	259	517
Frame#	Time	L.Toe.Tip			R.Toe.Tip			L.Ankle.Lat			R.Ankle.Lat			L.Ankle.Med			R.Ankle.Med			L.Heel			R.Heel			L.Knee.Lat			R.Knee.Lat			L.Knee.Med			R.Knee.Med			L.Thigh.Upper			R.Thigh.Upper			L.ASIS			R.ASIS			V.Sacral			L.Acromium			R.Acromium			C7			L.Elbow			R.Elbow			L.Wrist.Lat			R.Wrist.Lat
		X1	Y1	Z1	X2	Y2	Z2	X3	Y3	Z3	X4	Y4	Z4	X5	Y5	Z5	X6	Y6	Z6	X7	Y7	Z7	X8	Y8	Z8	X9	Y9	Z9	X10	Y10	Z10	X11	Y11	Z11	X12	Y12	Z12	X13	Y13	Z13	X14	Y14	Z14	X15	Y15	Z15	X16	Y16	Z16	X17	Y17	Z17	X18	Y18	Z18	X19	Y19	Z19	X20	Y20	Z20	X21	Y21	Z21	X22	Y22	Z22	X23	Y23	Z23	X24	Y24	Z24

259	1.032	0.092529414	0.0087051977	-0.062049688	0.67467613	0.11618316	0.11478882	-0.025061505	0.065277636	-0.077331468	0.53708617	0.10569162	0.13151197	-0.013324939	0.080892006	0.0085530512	0.5543717	0.13448345	0.045720418	-0.096994992	0.051734246	-0.024076666	0.49644658	0.070060039	0.06721588	0.09644494	0.41519388	-0.10567463	0.45513234	0.49111404	0.13168806	0.092952275	0.42003643	0.016276685	0.43280146	0.46241332	0.0097817559	0.18242346	0.78898476	-0.17875196	0.2476178	0.79850839	0.16654824	0.2727164	0.83147669	-0.1496181	0.32068017	0.84616572	0.092953344	0.11505211	0.91729445	0.0048822	0.26717391	1.3236976	-0.19551125	0.26378417	1.3074341	0.16748846	0.18900273	1.3574997	-0.016414907	0.26159971	0.99776407	-0.27973239	0.099882736	1.0410756	0.23220603	0.50833638	0.94422666	-0.24098817	0.13832407	0.81480368	0.30301647
260	1.036	0.092492115	0.0086516336	-0.062115126	0.69008745	0.11856586	0.11314125	-0.0245239	0.065869715	-0.07753476	0.55258218	0.10578966	0.13079267	-0.01275024	0.081455779	0.0083668676	0.5690656	0.13524449	0.045245139	-0.096687269	0.052960191	-0.024310896	0.51224764	0.069680267	0.066674117	0.099860529	0.41487642	-0.10577336	0.46195758	0.48864772	0.13117944	0.096736498	0.4197389	0.016204263	0.43951528	0.45955253	0.0088815075	0.18783852	0.78783446	-0.17840188	0.25569426	0.796584	0.16651165	0.27822181	0.83027174	-0.14978488	0.32821701	0.84462295	0.092625872	0.1213801	0.91624443	0.0027552404	0.27376711	1.3223762	-0.19531657	0.27029247	1.3060648	0.16777	0.19549012	1.3562343	-0.016175224	0.26945676	0.99627523	-0.27981104	0.10551371	1.0402999	0.23212194	0.51668462	0.94612336	-0.23960028	0.14216109	0.81405774	0.3038846
261	1.04	0.092474396	0.008607513	-0.062195278	0.70470713	0.12104146	0.11155331	-0.023993088	0.066507362	-0.077745144	0.56732119	0.10593882	0.13003968	-0.012183667	0.082030348	0.0081442588	0.5829699	0.13597996	0.044682416	-0.096324604	0.054221195	-0.024634701	0.52733019	0.069296566	0.066141308	0.1034356	0.41450173	-0.10587489	0.46892201	0.48624359	0.13067989	0.10062668	0.41937486	0.016150586	0.44630406	0.45673525	0.0079312313	0.19331491	0.78667109	-0.17802859	0.2637699	0.79460418	0.16648829	0.28382291	0.82904508	-0.14993853	0.33574329	0.84308223	0.092296372	0.12773166	0.91509648	0.0015007622	0.28035451	1.3210396	-0.19510808	0.27681297	1.3046826	0.16807409	0.20199894	1.3549442	-0.015941347	0.27727739	0.99478697	-0.27985231	0.11119537	1.0394687	0.23205542	0.52494709	0.94791009	-0.23823495	0.14615813	0.81325954	0.30474529
262	1.044	0.092468295	0.0085691592	-0.062302078	0.71851105	0.12354666	0.10999973	-0.023440114	0.067192337	-0.077981444	0.58130501	0.10610347	0.12925225	-0.011597533	0.082622094	0.0078972134	0.59608622	0.13660873	0.043999663	-0.09590829	0.055517261	-0.025032129	0.54167015	0.068845626	0.065614746	0.10716953	0.41406821	-0.10597773	0.47605107	0.48393527	0.1301857	0.10465544	0.41893928	0.01610719	0.45318739	0.45399514	0.006972138	0.1988481	0.78549881	-0.1776326	0.27185532	0.79259049	0.16648938	0.28960791	0.8277889	-0.15011335	0.34326562	0.84154803	0.09197334	0.13431524	0.91368715	0.0020587897	0.28693672	1.3196905	-0.19488692	0.28334441	1.3032833	0.16839875	0.2085257	1.3536406	-0.015690139	0.28506725	0.99330507	-0.27987004	0.11693947	1.0385838	0.23200984	0.5331238	0.94958176	-0.23689759	0.15028403	0.81241683	0.30558729
263	1.048	0.092468846	0.0085352721	-0.062422097	0.7314923	0.12600163	0.1084454	-0.022813757	0.067900563	-0.078261734	0.59453998	0.10625136	0.12842232	-0.01097654	0.083235754	0.0076313927	0.60846561	0.13708407	0.043176511	-0.09544985	0.056857909	-0.025474761	0.55525071	0.06829161	0.065069601	0.11106386	0.4135853	-0.10608548	0.4833553	0.48175877	0.12967342	0.10885911	0.41842784	0.016063608	0.46018279	0.451366	0.0060096259	0.20443625	0.78432054	-0.1772109	0.27995994	0.79056322	0.16652185	0.29555138	0.82651564	-0.15030329	0.35078683	0.84002773	0.091661758	0.14114759	0.91208445	0.0039749711	0.29351398	1.3183345	-0.19465197	0.28988774	1.3018714	0.16874231	0.21506627	1.3523344	-0.015415646	0.2928349	0.991834	-0.27985586	0.12275965	1.0376508	0.23198702	0.54121704	0.95113806	-0.23558976	0.15454495	0.81155181	0.3064126
264	1.052	0.092469655	0.0085045798	-0.062518428	0.74365743	0.12832111	0.10687318	-0.022108862	0.068626534	-0.078587318	0.60702237	0.10634572	0.1275364	-0.010315903	0.083878105	0.0073495039	0.62016628	0.13738491	0.042200867	-0.094958259	0.058261621	-0.025936669	0.5680638	0.067622239	0.064473037	0.11511814	0.41306268	-0.10620399	0.49084067	0.4797498	0.1291036	0.11326111	0.41783213	0.016014564	0.4672992	0.44888278	0.0050348344	0.21007982	0.78314354	-0.17676137	0.28805626	0.78852334	0.16656316	0.30158567	0.8252412	-0.15048762	0.35830743	0.83853188	0.091363021	0.14821114	0.91041456	0.0064797871	0.30008511	1.3169802	-0.19439988	0.29644828	1.3004569	0.16910345	0.22161994	1.3510326	-0.015115935	0.30058704	0.99037218	-0.2797518	0.12866189	1.036678	0.23199112	0.54923089	0.95257972	-0.23430465	0.15900106	0.8106953	0.30724039
265	1.056	0.092466749	0.0084758306	-0.062563577	0.75502208	0.13040695	0.10530793	-0.021359686	0.069384494	-0.078948437	0.61874166	0.10634485	0.12658037	-0.0096124738	0.084561069	0.0070544589	0.63121985	0.13749808	0.041089432	-0.094433813	0.059748688	-0.026402305	0.58010694	0.066838302	0.063796296	0.11932761	0.41250495	-0.10633498	0.49853128	0.47793971	0.12844849	0.1178594	0.41714214	0.015964014	0.47453269	0.44657709	0.0040382301	0.2157775	0.7819783	-0.17628552	0.29610055	0.7864722	0.16657363	0.30767256	0.8239765	-0.1506514	0.36583046	0.83707023	0.091080403	0.15558889	0.9087012	0.009425385	0.3066467	1.3156366	-0.19412899	0.30303049	1.299048	0.16947996	0.22819254	1.349734	-0.014787554	0.30832447	0.98890969	-0.27947525	0.13464643	1.0356715	0.23203138	0.55716665	0.95390597	-0.23303194	0.16371925	0.80987492	0.30810296
266	1.06	0.092464602	0.0084488473	-0.06257072	0.76561234	0.13214215	0.10379925	-0.020588724	0.070186158	-0.079332021	0.62969748	0.10620763	0.12554375	-0.0088547325	0.08529704	0.0067484242	0.64162952	0.1374062	0.039887152	-0.093869061	0.061331201	-0.026866612	0.59137672	0.065944768	0.063017538	0.12368435	0.41191567	-0.10647403	0.50648127	0.47634785	0.12772337	0.12261956	0.41635205	0.015922745	0.48186571	0.44446878	0.0030206394	0.22152675	0.78083211	-0.17578773	0.30409498	0.78442844	0.1665442	0.31380904	0.82273038	-0.15079052	0.37336152	0.83564499	0.090819506	0.16339014	0.9069225	0.012930266	0.31319581	1.3143103	-0.19384001	0.30963949	1.2976471	0.16987207	0.23479177	1.3484329	-0.014427502	0.31602917	0.98743324	-0.27900925	0.14071621	1.0346352	0.23211619	0.56502129	0.95511661	-0.23176728	0.16870974	0.80909553	0.30902193
267	1.064	0.092473478	0.0084259958	-0.062575174	0.77547308	0.133407	0.10236795	-0.019792474	0.071039773	-0.07971975	0.63990651	0.10589759	0.12441925	-0.0080157775	0.086094033	0.0064291051	0.65139732	0.13709019	0.038627855	-0.093251999	0.063009441	-0.027332492	0.6018708	0.06494592	0.062115966	0.1281786	0.41130212	-0.10661839	0.51473774	0.4749637	0.12698356	0.12748796	0.415476	0.015887388	0.48927287	0.44256318	0.0019987804	0.22733042	0.77970559	-0.17527346	0.31209493	0.7824191	0.16650719	0.31999948	0.82151143	-0.15091195	0.38090346	0.83424697	0.090579042	0.1715355	0.90512902	0.016745184	0.31973411	1.3130049	-0.19353267	0.31628575	1.2962521	0.17028544	0.2414266	1.3471293	-0.014035031	0.32366686	0.98593951	-0.2784546	0.14687961	1.0335753	0.23224596	0.57279207	0.95621265	-0.2305138	0.1739114	0.80832734	0.3099826
268	1.068	0.092501216	0.0084122616	-0.062594857	0.78466211	0.13411158	0.1009945	-0.018959538	0.071956355	-0.080091976	0.64939137	0.10538155	0.12320085	-0.0070585307	0.086962991	0.0060942499	0.66054445	0.13653911	0.037312085	-0.092569722	0.06477836	-0.02780722	0.61159744	0.063841252	0.061069225	0.13280035	0.41067613	-0.10678291	0.5232454	0.47373293	0.12626503	0.13244909	0.41457034	0.015796258	0.49672845	0.44086191	0.00099771604	0.2331996	0.77859718	-0.17474793	0.32015108	0.78046777	0.16649553	0.32623793	0.82032549	-0.15102715	0.38844799	0.83285503	0.090341762	0.1796852	0.90344345	0.02021596	0.32626889	1.3117216	-0.19320484	0.32298277	1.2948601	0.17072797	0.2481074	1.3458277	-0.013611981	0.33122756	0.98444253	-0.27794814	0.15314628	1.0324994	0.2324182	0.58048073	0.95719236	-0.22927663	0.17923636	0.80752106	0.31094298
269	1.072	0.092548784	0.0084116563	-0.062626445	0.79322722	0.1342169	0.099658746	-0.018075978	0.072942842	-0.080445708	0.65817329	0.10462816	0.12188481	-0.0059651437	0.087923093	0.0057517242	0.66909752	0.13575313	0.035926208	-0.091813506	0.066640907	-0.028295209	0.62057676	0.062624807	0.05986282	0.13754026	0.410052	-0.10700654	0.53179759	0.47257533	0.12552339	0.13757095	0.41372218	0.015530315	0.50420916	0.43937829	3.0142468e-05	0.23914713	0.77750948	-0.17421489	0.32826344	0.77859606	0.16650661	0.33251267	0.81917655	-0.15114136	0.39597794	0.83144497	0.090077571	0.18749186	0.90195957	0.022761182	0.33281083	1.310462	-0.19285328	0.32974137	1.2934733	0.17120281	0.25483538	1.3445358	-0.01315605	0.33875058	0.98296662	-0.27755013	0.15952356	1.0314121	0.23263749	0.58809212	0.95805102	-0.22805794	0.1846252	0.8066443	0.31187141
270	1.076	0.092610284	0.0084225916	-0.062664421	0.80119399	0.13372722	0.098351287	-0.017116693	0.073997036	-0.080804362	0.6662772	0.10361198	0.12047204	-0.0047729183	0.088982996	0.0054122779	0.67707286	0.13473632	0.034463026	-0.09098036	0.068615663	-0.028793746	0.62882968	0.061288727	0.058502183	0.14239484	0.40944049	-0.10732101	0.54016246	0.47143792	0.12467199	0.14293008	0.41297917	0.015035051	0.51169341	0.43813628	-0.000913299	0.24518022	0.77644791	-0.17367739	0.3364073	0.77683695	0.16651727	0.33882337	0.81807172	-0.15125564	0.40350051	0.83001858	0.089765034	0.19487914	0.90068114	0.024244473	0.33936868	1.3092313	-0.19247391	0.33656504	1.2921019	0.17170569	0.26160084	1.3432666	-0.012656508	0.34627623	0.98153713	-0.27722509	0.16601504	1.0303157	0.23291298	0.59562849	0.95878532	-0.22685727	0.19007261	0.80570349	0.31276705
271	1.08	0.092677164	0.0084379653	-0.062708481	0.80856999	0.13267103	0.09705082	-0.016055068	0.075116234	-0.081196268	0.67373213	0.10232	0.11897063	-0.0035570803	0.090120478	0.0050635156	0.68448057	0.13348407	0.032931033	-0.090066417	0.070723331	-0.029303353	0.63636829	0.059824072	0.057011537	0.1473747	0.40884253	-0.1077046	0.548264	0.47032952	0.12368876	0.1484951	0.4122876	0.014441747	0.51915981	0.43714843	-0.001839126	0.25130177	0.77541776	-0.17313863	0.34461154	0.77524632	0.16653923	0.3451949	0.81702261	-0.15138133	0.4110798	0.82862867	0.089416182	0.20199971	0.89956367	0.024806923	0.34594345	1.308037	-0.19206535	0.3434491	1.2907584	0.17223084	0.26839852	1.342031	-0.01210601	0.35378531	0.98017617	-0.27687747	0.17261857	1.0292122	0.23324633	0.60308692	0.9593961	-0.22567615	0.1956144	0.80473014	0.31364842
